<?xml version="1.0" encoding="utf-8"?>
<!-- Generator: Adobe Illustrator 19.0.0, SVG Export Plug-In . SVG Version: 6.00 Build 0)  -->
<svg version="1.1" id="图层_1" xmlns="http://www.w3.org/2000/svg" xmlns:xlink="http://www.w3.org/1999/xlink" x="0px" y="0px"
	 viewBox="0 0 344.9 186.9" style="enable-background:new 0 0 344.9 186.9;" xml:space="preserve">
<style type="text/css">
	.st0{fill:#2778BD;}
	.st1{fill:#FBC70D;}
	.st2{fill:#E0AC00;}
	.st3{fill:#23689A;}
	.st4{fill:#FFFFFF;}
</style>
<g id="XMLID_1_">
	<path id="XMLID_88_" class="st0" d="M176.2,76.5c-2.6,0.4-4.7,1.7-4.7,3.8c0,2,2.6,2.9,4.4,3.8c10.4,5.5,5.9-2.3,5.3-3.6
		C180.7,79,179,76.1,176.2,76.5z M167.8,109.3c-2.8-0.5-0.2,9.4,5.1,8.8c5.3-0.7,9.5-3.2,11-8.7c0.4-1.5-1.2-2.7-2.5-1.9
		C178.9,109.1,174.5,110.6,167.8,109.3z M174.4,98.7c10.7,5.7,6.1-2.3,5.5-3.7c-0.6-1.6-2.4-4.6-5.2-4.2c-2.7,0.4-4.9,1.8-4.9,4
		C169.8,96.8,172.5,97.7,174.4,98.7z M265.9,61c6.9,3.4,14.4,0.8,9.5-6.5C269,45.1,253.3,54.9,265.9,61z M222.5,72
		c0,0-4.7,0.5-5.8,0.5C191.8,73.9,185,52,181.6,50c-5.8-3.4-17.4,11.2-9,18.9C178.5,74.5,202.3,85,222.5,72z M233.2,88.7
		c-7,1-8.4,9.6-2.7,11.5c1.1,0.4,2.3,0.5,3.5,0.4c-3.4,5.4-8.4,9.7-6,14.9c2.8,5.9,16.5,1.5,17.5-6.9c0.3-2.4-0.6-4.3-3.2-4.2
		c-7.3,0.4-1,7.9-9,7.4c-3.8-0.2,1.3-6.7,3.3-11.8c2.4-0.9,4.6-2.8,6.4-5.8c4.8-8-0.3-18.1-10.8-20.9c-4.3-1.2-10.7,5.8-4.5,9.9
		c2.5,1.6,18.5-0.3,10.8,12.5c-0.3,0.4-0.6,0.7-1,1C238.4,92.4,237.9,88.1,233.2,88.7z M235.6,97.4c-2.1,0.5-3.2,0.5-4.3,0
		c-1.5-0.7-3-1.8-3-3.7c0-1.9,4.3-5.1,6.5-4.1C238.1,91.1,235.7,97.3,235.6,97.4z M223.6,101.2c-0.5,0.1-2.7,1.5-5.9,3.2
		c0.1-2.2,0-4.9-0.6-7.5c2.6-1.5,4.7-3.4,5.8-5.7c0,0-2.6,1.4-3.2,1.7c-1.1,0.5-2.2,1-3.4,1.3c-0.5-1.4-1-2.8-1.8-4.1
		c-3.2-5.4-10-10.5-15-5c-0.7,0.6-3.6,4.1-6,8.7c-4.3-1.1-7.4-2.2-8-2.1c-5.3,0.5-0.6,11.2,2.8,11.3c0.6,0,1.2,0,2,0
		c-0.6,3.3-0.4,6.8,1.1,10c2.2,4.5,10.9,4.5,18.6,1.5c-13.5,21.6-47.9,4.9-52.2,2.6c-4.4-2.2-7.3-4.7-8-4.6
		c-5,0.8-13.4,23.1,3.4,25.4c3.4,0.5,58.4,4.7,63.3-25.2c2.8-1.1,5-1.6,6.4-2C225.8,109.9,228.1,100.6,223.6,101.2z M200.2,88.6
		c3.1-3.6,6.4-2.3,8.9,0.7c1.2,1.5,2.3,3.4,3,5.8c-1.7,0.3-3.4,0.4-5,0.4c-0.6-1.5-1.3-2.9-2.1-4c-0.7-1.1-2.4-0.8-2.6,0.5
		c-0.2,1-0.4,2.1-0.6,3.3c-1.6-0.2-3.1-0.4-4.5-0.7C197.9,92.3,198.9,90.1,200.2,88.6z M212,107c-0.7,0.3-5.4,2.7-12.5,2.1
		c-2.1-0.2-3.2-3-3.3-6.5c1.9-0.2,3.9-0.5,5.9-0.8c0.5,1.4,1.5,2.6,3.1,3.4c3.5,1.7,4.1-1.1,3.4-4.8c1.4-0.4,2.8-0.9,4.2-1.4
		C212.9,101.3,212.7,103.9,212,107z M326.2,113.6c-2.4-1-26,11.5-45.7-5.2c-0.9-0.8-3.5-3.7-1.6-7.8c1.1-2.3,7.2-5.1,7.5-5.2
		c4.6-2.5,2.3-6.8-1.5-6.5c-5.2,0.4-10.5,6.4-10.6,12.2c-0.1,23.7,31.6,35.2,40.8,37.2C324.3,140.2,333.6,116.5,326.2,113.6z
		 M302.1,74.4c12.5-9.7-5.6-32.7-9-22.6c-6.2,18.2-18.7,23.4-24,25.8c-2.1-4.7-5-9.2-10.9-11.9c0,0,2,2.5,2.4,3.1
		c2.1,2.9,3.2,5.9,3.6,8.7c0,0.4,0,0.8,0.1,1.3c-1.6,0.3-3.3,0.5-4.8,0.3c-2.9-0.2-8.3,0.5-13.1-5.3c0.3,0.9,1,2.5,3.1,4.6
		c3.8,3.8,9.4,5.8,15.5,6.1c1,8.8,2.3,27.1-3.8,32.2c-2,1.7-3.7,0.7-5.4-2c4.3-7.5,8.2-19.2,3.9-23.8c-0.9-1-2.4-1.8-4.7-1.9
		c-7.7-0.3-8.9,11.4-3.5,23.9c-14.5,15.1-21.5,8.3-23.3,9.1c-3.7,1.8,2.9,9.7,6.6,9.7c8.3-0.1,14.5-6.5,19.3-14.4
		c1.1,1.9,2.3,3.7,3.6,5.2c1.1,1.3,3,2.5,5.5,2.1c11.5-1.9,10.1-24.5,7.6-40.4C276.3,83.8,297.8,77.7,302.1,74.4z M253,111
		c-2.8-3.6-3.7-7.9-3.9-10.3c-0.3-4.1,2.4-7.2,4.8-6.9c4.8,0.6,3.1,5.5,2.8,7.5C256.4,104.2,253.3,110.8,253,111z M166.5,93.5
		c1.9-5.7-1.6-8.6-1.6-8.6s1.1,4.9-0.7,7.7c-5,7.9-9.8,4-10.9,2c-1.9-3.3-0.2-6.6,3.3-8.1c5.4-2.4,5.6-7.8,0-9.6
		c-8.4-2.7-22.4,11.2-10.6,22.2C155.6,108.1,165,97.9,166.5,93.5z"/>
	<path id="XMLID_87_" class="st1" d="M47.8,99.8c0,0-1.4-5.6-1.7-6.8c-6.1-29.7,24.4-41,25.1-43.6c2.4-7.9-19.5-18.4-27.3-7.1
		C38.4,50.4,28.5,77.9,47.8,99.8z"/>
	<path id="XMLID_86_" class="st2" d="M71.3,49.4c0.6-2.1-0.6-4.4-2.2-6.1c-0.5-0.5-2,0.2-2,0.2C31,62.7,47.8,99.8,47.8,99.8
		s-1.4-5.6-1.7-6.8C40,63.2,70.5,51.9,71.3,49.4z"/>
	<path id="XMLID_85_" class="st1" d="M58.1,68.8c0,0,4.8-3.2,5.9-3.8c26.1-15.4,46.7,9.7,49.4,9.5c8.2-0.3,11.1-24.5-2.2-28.1
		C101.7,43.8,72.5,43.4,58.1,68.8z"/>
	<path id="XMLID_84_" class="st2" d="M113.4,74.5c2.2-0.1,4-2,5-4.1c0.3-0.6-0.8-1.8-0.8-1.8c-29.9-27.8-59.5,0.2-59.5,0.2
		s4.8-3.2,5.9-3.8C90.1,49.5,110.7,74.6,113.4,74.5z"/>
	<path id="XMLID_83_" class="st1" d="M90.5,69.1c0,0,4.5,3.6,5.5,4.4c22.7,20.1,5.2,47.4,6.1,49.9c2.9,7.7,26.7,3,26.1-10.8
		C127.7,102.9,119.1,75,90.5,69.1z"/>
	<path id="XMLID_82_" class="st2" d="M102.1,123.5c0.8,2.1,3.2,3.2,5.4,3.5c0.7,0.1,1.5-1.4,1.5-1.4c17.3-37-18.5-56.6-18.5-56.6
		s4.5,3.6,5.5,4.4C118.7,93.6,101.1,121,102.1,123.5z"/>
	<path id="XMLID_81_" class="st1" d="M100.4,99.5c0,0-2,5.4-2.5,6.6c-11.9,27.9-43.4,19.8-45.5,21.5c-6.4,5.1,5.5,26.3,18.4,21.4
		C80,145.4,103.8,128.4,100.4,99.5z"/>
	<path id="XMLID_80_" class="st2" d="M52.4,127.5c-1.7,1.4-2,4-1.6,6.2c0.1,0.7,1.8,1,1.8,1c40.5,4.8,47.9-35.3,47.9-35.3
		s-2,5.4-2.5,6.6C85.9,133.9,54.5,125.9,52.4,127.5z"/>
	<path id="XMLID_79_" class="st1" d="M74.6,118.9c0,0-5.8-0.3-7-0.4c-30.2-2.9-32.1-35.3-34.3-36.8c-6.8-4.6-23.4,13.2-14.8,24
		C24.6,113.4,48,130.9,74.6,118.9z"/>
	<path id="XMLID_78_" class="st2" d="M33.2,81.7c-1.8-1.2-4.4-0.7-6.4,0.3c-0.6,0.3-0.4,2-0.4,2c7.7,40.1,48.2,34.9,48.2,34.9
		s-5.8-0.3-7-0.4C37.4,115.6,35.5,83.2,33.2,81.7z"/>
	<circle id="XMLID_77_" class="st0" cx="74.1" cy="91.2" r="23.4"/>
	<path id="XMLID_76_" class="st3" d="M89.5,73.6c3.8,4.3,6,10,5.8,16.2c-0.4,12.9-11.1,23.1-24,22.7c-5.7-0.2-10.8-2.3-14.7-5.8
		c4.1,4.7,10.1,7.7,16.8,7.9c12.9,0.4,23.7-9.8,24-22.7C97.7,84.7,94.6,78.1,89.5,73.6z"/>
	<g id="XMLID_69_">
		<path id="XMLID_74_" class="st4" d="M64,94c-0.1-0.1-0.6-0.1-1.6-0.1c0,0-0.1,0-0.3,0c-1.5-0.1-2.4,0-2.5,0.3c0,0.1,0,0.3-0.1,0.4
			c0,0.3,0,0.7,0,1c0.2,1.8-0.4,2.7-1.7,2.6c-1.2,0-1.7-0.7-1.7-2.1c0-0.4,0.1-1.2,0.4-2.2c0.4-1.8,0.6-3.3,0.5-4.5
			c0-0.1-0.1-0.2-0.3-0.4c-0.4-0.4-0.6-0.9-0.6-1.5c0.6,0.3,1.2,0.2,2-0.1c0.3-0.2,0.6-0.2,0.8-0.2c1.1-0.2,1.6,0.5,1.5,2
			c0,0.1-0.1,0.5-0.2,1.1c-0.1,0.6-0.2,1-0.2,1.1c0.5,0,1.3,0,2.3,0c1.2,0,1.9,0,2.2-0.1c0.1-0.4,0.2-1.2,0.1-2.4
			c0-0.2-0.1-0.3-0.3-0.5c-0.3-0.3-0.5-0.7-0.5-1.2c0.5,0.2,1,0.2,1.5-0.1c0.4-0.2,0.8-0.3,1.2-0.3c1,0,1.5,0.6,1.6,1.7
			c0,0.3-0.1,0.6-0.2,0.9c-0.2,0.3-0.3,0.6-0.3,0.9c0,0.2,0,0.3,0,0.6c-0.1,1.9-0.2,3.9-0.1,5.9c0,0.8-0.6,1.2-1.8,1.3
			c-1.2,0.1-1.8-0.4-1.8-1.6c0-0.1,0.1-0.7,0.3-1.9l0.1-0.5L64,94z"/>
		<path id="XMLID_72_" class="st4" d="M73.1,94.2L73,95.6l0.1,0.1c0.3,0,1-0.1,2.1-0.1c1.8,0,2.8,0.4,2.8,1.2c0,0.8-1.2,1.3-2.7,1.3
			c-0.5,0-0.8,0-0.9,0c-1,0.1-1.3,0.1-1.9,0.1c-2,0.1-2.9-0.9-2.9-2.8c0-0.5,0.2-2.3,0.6-5.4l0.1-0.8c-0.5-0.2-0.7-0.7-0.8-1.5
			c-0.1-0.4,0-0.9,0.3-1.3c0,0.5,0.4,0.7,1.4,0.6c0.1,0,0.3,0,0.6,0c4.6,0.1,6.9-0.4,6.9,0.6c0,0.9-1.3,2.2-3.8,2.1
			c-0.6,0-0.9,0-1.1,0c-0.2,0.2-0.3,0.8-0.5,1.8c0.2,0.1,0.9,0.2,2,0.2c0.1,0,0.2,0,0.2,0c1.3,0.2,2,0.7,2.1,1.6
			c0,0.8-0.6,1-1.7,0.8c-0.5-0.1-0.8-0.1-1-0.1C73.9,94,73.2,94.1,73.1,94.2z"/>
		<path id="XMLID_70_" class="st4" d="M86.2,92.5c0.1-0.2,0.4-0.7,0.7-1.4c1.3-2.7,2.4-4.1,3.2-4c1.3,0,2.1,0.7,2.4,2.1
			c0,0.1-0.3,0.3-0.7,0.6c-2.8,2.2-4.1,4.4-3.9,6.5c0.1,1.3-0.5,1.9-1.7,1.9c-1.4,0.1-2-1.1-1.9-3.6c0-0.5-0.6-1.5-1.8-3
			c-1.4-1.7-2-2.9-1.9-3.4c0.3-0.9,1.1-1.2,2.5-1.2c0.6,0,1,0.3,1.3,0.9c0.2,0.3,0.5,1.1,0.9,2.2C85.6,91.4,86,92.2,86.2,92.5z"/>
	</g>
</g>
</svg>
