<?xml version="1.0" encoding="utf-8"?>
<!-- Generator: Adobe Illustrator 19.0.0, SVG Export Plug-In . SVG Version: 6.00 Build 0)  -->
<svg version="1.1" id="图层_1" xmlns="http://www.w3.org/2000/svg" xmlns:xlink="http://www.w3.org/1999/xlink" x="0px" y="0px"
	 viewBox="0 0 344.9 186.9" style="enable-background:new 0 0 344.9 186.9;" xml:space="preserve">
<style type="text/css">
	.st0{fill:#2778BD;}
	.st1{fill:#FBC70D;}
	.st2{fill:#E0AC00;}
	.st3{fill:#23689A;}
	.st4{fill:#FFFFFF;}
</style>
<g id="XMLID_1_">
	<path id="XMLID_88_" class="st0" d="M176.2,76.5c-2.6,0.4-4.7,1.7-4.7,3.8c0,2,2.6,2.9,4.4,3.8c10.4,5.5,5.9-2.3,5.3-3.6
		C180.7,79,179,76.1,176.2,76.5z M167.8,109.3c-2.8-0.5-0.2,9.4,5.1,8.8c5.3-0.7,9.5-3.2,11-8.7c0.4-1.5-1.2-2.7-2.5-1.9
		C178.9,109.1,174.5,110.6,167.8,109.3z M174.4,98.7c10.7,5.7,6.1-2.3,5.5-3.7c-0.6-1.6-2.4-4.6-5.2-4.2c-2.7,0.4-4.9,1.8-4.9,4
		C169.8,96.8,172.5,97.7,174.4,98.7z M265.9,61c6.9,3.4,14.4,0.8,9.5-6.5C269,45.1,253.3,54.9,265.9,61z M222.5,72
		c0,0-4.7,0.5-5.8,0.5C191.8,73.9,185,52,181.6,50c-5.8-3.4-17.4,11.2-9,18.9C178.5,74.5,202.3,85,222.5,72z M233.2,88.7
		c-7,1-8.4,9.6-2.7,11.5c1.1,0.4,2.3,0.5,3.5,0.4c-3.4,5.4-8.4,9.7-6,14.9c2.8,5.9,16.5,1.5,17.5-6.9c0.3-2.4-0.6-4.3-3.2-4.2
		c-7.3,0.4-1,7.9-9,7.4c-3.8-0.2,1.3-6.7,3.3-11.8c2.4-0.9,4.6-2.8,6.4-5.8c4.8-8-0.3-18.1-10.8-20.9c-4.3-1.2-10.7,5.8-4.5,9.9
		c2.5,1.6,18.5-0.3,10.8,12.5c-0.3,0.4-0.6,0.7-1,1C238.4,92.4,237.9,88.1,233.2,88.7z M235.6,97.4c-2.1,0.5-3.2,0.5-4.3,0
		c-1.5-0.7-3-1.8-3-3.7c0-1.9,4.3-5.1,6.5-4.1C238.1,91.1,235.7,97.3,235.6,97.4z M223.6,101.2c-0.5,0.1-2.7,1.5-5.9,3.2
		c0.1-2.2,0-4.9-0.6-7.5c2.6-1.5,4.7-3.4,5.8-5.7c0,0-2.6,1.4-3.2,1.7c-1.1,0.5-2.2,1-3.4,1.3c-0.5-1.4-1-2.8-1.8-4.1
		c-3.2-5.4-10-10.5-15-5c-0.7,0.6-3.6,4.1-6,8.7c-4.3-1.1-7.4-2.2-8-2.1c-5.3,0.5-0.6,11.2,2.8,11.3c0.6,0,1.2,0,2,0
		c-0.6,3.3-0.4,6.8,1.1,10c2.2,4.5,10.9,4.5,18.6,1.5c-13.5,21.6-47.9,4.9-52.2,2.6c-4.4-2.2-7.3-4.7-8-4.6
		c-5,0.8-13.4,23.1,3.4,25.4c3.4,0.5,58.4,4.7,63.3-25.2c2.8-1.1,5-1.6,6.4-2C225.8,109.9,228.1,100.6,223.6,101.2z M200.2,88.6
		c3.1-3.6,6.4-2.3,8.9,0.7c1.2,1.5,2.3,3.4,3,5.8c-1.7,0.3-3.4,0.4-5,0.4c-0.6-1.5-1.3-2.9-2.1-4c-0.7-1.1-2.4-0.8-2.6,0.5
		c-0.2,1-0.4,2.1-0.6,3.3c-1.6-0.2-3.1-0.4-4.5-0.7C197.9,92.3,198.9,90.1,200.2,88.6z M212,107c-0.7,0.3-5.4,2.7-12.5,2.1
		c-2.1-0.2-3.2-3-3.3-6.5c1.9-0.2,3.9-0.5,5.9-0.8c0.5,1.4,1.5,2.6,3.1,3.4c3.5,1.7,4.1-1.1,3.4-4.8c1.4-0.4,2.8-0.9,4.2-1.4
		C212.9,101.3,212.7,103.9,212,107z M326.2,113.6c-2.4-1-26,11.5-45.7-5.2c-0.9-0.8-3.5-3.7-1.6-7.8c1.1-2.3,7.2-5.1,7.5-5.2
		c4.6-2.5,2.3-6.8-1.5-6.5c-5.2,0.4-10.5,6.4-10.6,12.2c-0.1,23.7,31.6,35.2,40.8,37.2C324.3,140.2,333.6,116.5,326.2,113.6z
		 M302.1,74.4c12.5-9.7-5.6-32.7-9-22.6c-6.2,18.2-18.7,23.4-24,25.8c-2.1-4.7-5-9.2-10.9-11.9c0,0,2,2.5,2.4,3.1
		c2.1,2.9,3.2,5.9,3.6,8.7c0,0.4,0,0.8,0.1,1.3c-1.6,0.3-3.3,0.5-4.8,0.3c-2.9-0.2-8.3,0.5-13.1-5.3c0.3,0.9,1,2.5,3.1,4.6
		c3.8,3.8,9.4,5.8,15.5,6.1c1,8.8,2.3,27.1-3.8,32.2c-2,1.7-3.7,0.7-5.4-2c4.3-7.5,8.2-19.2,3.9-23.8c-0.9-1-2.4-1.8-4.7-1.9
		c-7.7-0.3-8.9,11.4-3.5,23.9c-14.5,15.1-21.5,8.3-23.3,9.1c-3.7,1.8,2.9,9.7,6.6,9.7c8.3-0.1,14.5-6.5,19.3-14.4
		c1.1,1.9,2.3,3.7,3.6,5.2c1.1,1.3,3,2.5,5.5,2.1c11.5-1.9,10.1-24.5,7.6-40.4C276.3,83.8,297.8,77.7,302.1,74.4z M253,111
		c-2.8-3.6-3.7-7.9-3.9-10.3c-0.3-4.1,2.4-7.2,4.8-6.9c4.8,0.6,3.1,5.5,2.8,7.5C256.4,104.2,253.3,110.8,253,111z M166.5,93.5
		c1.9-5.7-1.6-8.6-1.6-8.6s1.1,4.9-0.7,7.7c-5,7.9-9.8,4-10.9,2c-1.9-3.3-0.2-6.6,3.3-8.1c5.4-2.4,5.6-7.8,0-9.6
		c-8.4-2.7-22.4,11.2-10.6,22.2C155.6,108.1,165,97.9,166.5,93.5z"/>
    </g>
</svg>